<svg xmlns="http://www.w3.org/2000/svg" width="21.683" height="17.5" viewBox="0 0 21.683 17.5"><path d="M21.141,7.109H18.973V4.922a.546.546,0,0,0-.542-.547H17.347a.546.546,0,0,0-.542.547V7.109H14.636a.546.546,0,0,0-.542.547V8.75a.546.546,0,0,0,.542.547H16.8v2.188a.546.546,0,0,0,.542.547h1.084a.546.546,0,0,0,.542-.547V9.3h2.168a.546.546,0,0,0,.542-.547V7.656A.546.546,0,0,0,21.141,7.109ZM7.589,8.75A4.375,4.375,0,1,0,3.253,4.375,4.356,4.356,0,0,0,7.589,8.75Zm3.036,1.094h-.566a5.851,5.851,0,0,1-4.94,0H4.554A4.575,4.575,0,0,0,0,14.438v1.422A1.634,1.634,0,0,0,1.626,17.5H13.552a1.634,1.634,0,0,0,1.626-1.641V14.438A4.575,4.575,0,0,0,10.625,9.844Z" fill="#3e3e3e"/></svg>