<svg xmlns="http://www.w3.org/2000/svg" width="24" height="24" viewBox="0 0 24 24"><g transform="translate(-0.081)"><rect width="24" height="24" transform="translate(0.081)" fill="none"/><path d="M18.354,33.967V48.388a1.967,1.967,0,0,1-1.967,1.967H12.893v-7.26h2.483l.356-2.77H12.893v-1.77c0-.8.221-1.348,1.372-1.348h1.467V34.733a19.721,19.721,0,0,0-2.139-.111,3.339,3.339,0,0,0-3.564,3.663v2.044H7.538V43.1h2.5v7.256H1.967A1.967,1.967,0,0,1,0,48.388V33.967A1.967,1.967,0,0,1,1.967,32H16.388A1.967,1.967,0,0,1,18.354,33.967Z" transform="translate(3.003 -28.742)" fill="#fff"/></g></svg>