<svg xmlns="http://www.w3.org/2000/svg" width="16.609" height="16.609" viewBox="0 0 16.609 16.609">
    <rect width="16" height="16" fill="none" />
    <g transform="translate(0.333 0.333)">
        <path d="M11.96,11.96A6.713,6.713,0,0,1,8,13.333C3.333,13.333.667,8,.667,8A12.3,12.3,0,0,1,4.04,4.04M6.6,2.827A6.08,6.08,0,0,1,8,2.667C12.667,2.667,15.333,8,15.333,8a12.333,12.333,0,0,1-1.44,2.127m-4.48-.713A2,2,0,1,1,6.587,6.587" fill="none" stroke="#000" stroke-linecap="round" stroke-linejoin="round" stroke-width="1.333" />
        <path d="M.667.667,15.333,15.333" fill="none" stroke="#000" stroke-linecap="round" stroke-linejoin="round" stroke-width="1.333" />
    </g>
</svg>